<svg xmlns="http://www.w3.org/2000/svg" viewBox="0 0 64 64">
  <!-- Fundo circular -->
  <circle cx="32" cy="32" r="30" fill="#198754" />
  
  <!-- Folha estilizada -->
  <path d="M16,32 C16,16 32,16 48,32 C48,48 32,48 16,32 Z" fill="#ffffff" />
  <path d="M32,20 C32,20 40,28 40,36 C40,40 36,44 32,44 C28,44 24,40 24,36 C24,28 32,20 32,20" fill="#198754" />
  
  <!-- Nervura central da folha -->
  <path d="M32,20 L32,44" stroke="#ffffff" stroke-width="2" fill="none" />
  
  <!-- Nervuras laterais da folha -->
  <path d="M32,24 L36,28" stroke="#ffffff" stroke-width="1.5" fill="none" />
  <path d="M32,30 L38,32" stroke="#ffffff" stroke-width="1.5" fill="none" />
  <path d="M32,36 L36,38" stroke="#ffffff" stroke-width="1.5" fill="none" />
  <path d="M32,24 L28,28" stroke="#ffffff" stroke-width="1.5" fill="none" />
  <path d="M32,30 L26,32" stroke="#ffffff" stroke-width="1.5" fill="none" />
  <path d="M32,36 L28,38" stroke="#ffffff" stroke-width="1.5" fill="none" />
</svg>

